<svg id="checked" xmlns="http://www.w3.org/2000/svg" width="42.941" height="42.941" viewBox="0 0 42.941 42.941">
  <g id="Group_144" data-name="Group 144" transform="translate(10.196 5.395)">
    <g id="Group_143" data-name="Group 143">
      <path id="Path_4657" data-name="Path 4657" d="M153.085,64.8a1.618,1.618,0,0,0-2.288,0L131.382,84.164l-7-7.608A1.618,1.618,0,1,0,122,78.748l8.146,8.847a1.616,1.616,0,0,0,1.156.522h.035a1.62,1.62,0,0,0,1.143-.472l20.608-20.554A1.618,1.618,0,0,0,153.085,64.8Z" transform="translate(-121.568 -64.327)" fill="#fff"/>
    </g>
  </g>
  <g id="Group_146" data-name="Group 146">
    <g id="Group_145" data-name="Group 145">
      <path id="Path_4658" data-name="Path 4658" d="M41.323,19.852A1.618,1.618,0,0,0,39.7,21.471,18.234,18.234,0,1,1,21.471,3.237a1.618,1.618,0,1,0,0-3.237A21.471,21.471,0,1,0,42.941,21.471,1.618,1.618,0,0,0,41.323,19.852Z" fill="#fff"/>
    </g>
  </g>
</svg>
