<svg id="add" xmlns="http://www.w3.org/2000/svg" width="36" height="36" viewBox="0 0 36 36">
  <g id="Group_121" data-name="Group 121">
    <g id="Group_120" data-name="Group 120">
      <path id="Path_4644" data-name="Path 4644" d="M15.231,0H1.385A1.385,1.385,0,0,0,0,1.385V15.231a1.385,1.385,0,0,0,1.385,1.385H15.231a1.385,1.385,0,0,0,1.385-1.385V1.385A1.385,1.385,0,0,0,15.231,0ZM13.846,13.846H2.769V2.769H13.846V13.846Z" fill="#fcfcfc"/>
    </g>
  </g>
  <g id="Group_123" data-name="Group 123" transform="translate(19.385)">
    <g id="Group_122" data-name="Group 122">
      <path id="Path_4645" data-name="Path 4645" d="M254.164,0H240.318a1.385,1.385,0,0,0-1.385,1.385V15.231a1.385,1.385,0,0,0,1.385,1.385h13.846a1.385,1.385,0,0,0,1.385-1.385V1.385A1.385,1.385,0,0,0,254.164,0Zm-1.385,13.846H241.7V2.769h11.077Z" transform="translate(-238.933)" fill="#fcfcfc"/>
    </g>
  </g>
  <g id="Group_125" data-name="Group 125" transform="translate(0 19.385)">
    <g id="Group_124" data-name="Group 124">
      <path id="Path_4646" data-name="Path 4646" d="M15.231,238.933H1.385A1.385,1.385,0,0,0,0,240.318v13.846a1.385,1.385,0,0,0,1.385,1.385H15.231a1.385,1.385,0,0,0,1.385-1.385V240.318A1.385,1.385,0,0,0,15.231,238.933Zm-1.385,13.846H2.769V241.7H13.846v11.077Z" transform="translate(0 -238.933)" fill="#fcfcfc"/>
    </g>
  </g>
  <g id="Group_127" data-name="Group 127" transform="translate(19.385 19.385)">
    <g id="Group_126" data-name="Group 126">
      <path id="Path_4647" data-name="Path 4647" d="M254.164,245.856h-5.538v-5.538a1.385,1.385,0,0,0-2.769,0v5.538h-5.538a1.385,1.385,0,1,0,0,2.769h5.538v5.538a1.385,1.385,0,1,0,2.769,0v-5.538h5.538a1.385,1.385,0,1,0,0-2.769Z" transform="translate(-238.933 -238.933)" fill="#fcfcfc"/>
    </g>
  </g>
</svg>
