<svg xmlns="http://www.w3.org/2000/svg" width="20.765" height="19.9" viewBox="0 0 20.765 19.9">
  <g id="paper-plane" transform="translate(0 0)">
    <path id="Path_4648" data-name="Path 4648" d="M8.75,17.612v4.013a.649.649,0,0,0,1.171.384l2.347-3.194Z" transform="translate(-1.18 -2.374)" fill="#fff"/>
    <path id="Path_4649" data-name="Path 4649" d="M20.492.12a.649.649,0,0,0-.677-.047L.349,10.24a.649.649,0,0,0,.09,1.19l5.412,1.85L17.376,3.424,8.457,14.169l9.07,3.1a.664.664,0,0,0,.209.035.648.648,0,0,0,.642-.553L20.758.745A.65.65,0,0,0,20.492.12Z" transform="translate(0 0)" fill="#fff"/>
  </g>
</svg>
