<svg xmlns="http://www.w3.org/2000/svg" width="70.091" height="70.088" viewBox="0 0 70.091 70.088">
  <path id="Path_4636" data-name="Path 4636" d="M35.046,0A35.044,35.044,0,1,0,70.091,35.045,35.046,35.046,0,0,0,35.046,0Zm0,10.479a11.592,11.592,0,1,1-11.59,11.592A11.592,11.592,0,0,1,35.046,10.48Zm-.008,50.447a25.72,25.72,0,0,1-16.748-6.176A4.94,4.94,0,0,1,16.556,51,11.69,11.69,0,0,1,28.3,39.309H41.791A11.673,11.673,0,0,1,53.52,51a4.927,4.927,0,0,1-1.732,3.753A25.711,25.711,0,0,1,35.038,60.927Z" transform="translate(0 -0.001)" fill="#b2b1b1"/>
</svg>
