<svg xmlns="http://www.w3.org/2000/svg" width="55.217" height="52.85" viewBox="0 0 55.217 52.85">
  <g id="star-1" transform="translate(0 -10.971)">
    <path id="Path_4662" data-name="Path 4662" d="M93.027,31.032,78.6,29.694l-5.729-13.3a1.156,1.156,0,0,0-2.123,0l-5.729,13.3L50.6,31.032a1.156,1.156,0,0,0-.656,2.019l10.882,9.56L57.64,56.742a1.156,1.156,0,0,0,1.718,1.248l12.455-7.4,12.455,7.4a1.156,1.156,0,0,0,1.718-1.248L82.8,42.611l10.883-9.56A1.156,1.156,0,0,0,93.027,31.032Z" transform="translate(-44.204 -4.211)" fill="#ffdc64"/>
    <g id="Group_150" data-name="Group 150" transform="translate(0 10.971)">
      <path id="Path_4663" data-name="Path 4663" d="M92.256,11.721c.735,1.021,2.811,5.407,4,7.964a.4.4,0,0,1-.64.46c-2.048-1.936-5.549-5.3-6.284-6.317a1.8,1.8,0,1,1,2.926-2.107Z" transform="translate(-79.393 -10.971)" fill="#fff082"/>
      <path id="Path_4664" data-name="Path 4664" d="M359.322,11.721c-.735,1.021-2.811,5.407-4,7.964a.4.4,0,0,0,.64.46c2.048-1.936,5.549-5.3,6.284-6.317a1.8,1.8,0,1,0-2.926-2.107Z" transform="translate(-316.969 -10.971)" fill="#fff082"/>
      <path id="Path_4665" data-name="Path 4665" d="M423.9,284.112c-1.2-.39-6.006-1.035-8.8-1.388a.4.4,0,0,0-.244.749c2.467,1.363,6.731,3.677,7.928,4.068a1.8,1.8,0,0,0,1.118-3.428Z" transform="translate(-369.928 -253.413)" fill="#fff082"/>
      <path id="Path_4666" data-name="Path 4666" d="M1.245,284.112c1.2-.39,6.006-1.035,8.8-1.388a.4.4,0,0,1,.244.749c-2.467,1.363-6.731,3.677-7.928,4.068a1.8,1.8,0,0,1-1.118-3.428Z" transform="translate(0 -253.413)" fill="#fff082"/>
      <path id="Path_4667" data-name="Path 4667" d="M239.794,408.827c0-1.258.878-6.031,1.409-8.8a.4.4,0,0,1,.788,0c.531,2.768,1.409,7.54,1.409,8.8a1.8,1.8,0,0,1-3.606,0Z" transform="translate(-213.933 -357.78)" fill="#fff082"/>
    </g>
    <path id="Path_4668" data-name="Path 4668" d="M74.958,21.228,72.874,16.39a1.156,1.156,0,0,0-2.123,0l-5.729,13.3L50.6,31.032a1.156,1.156,0,0,0-.656,2.019l10.882,9.56L57.64,56.742a1.156,1.156,0,0,0,1.718,1.248l1.658-.984A89.728,89.728,0,0,1,74.958,21.228Z" transform="translate(-44.204 -4.211)" fill="#ffc850"/>
  </g>
</svg>
