<svg id="delete" xmlns="http://www.w3.org/2000/svg" width="22.5" height="30" viewBox="0 0 22.5 30">
  <path id="Path_4650" data-name="Path 4650" d="M135.5,4.687h-1.875V1.875h-3.75V4.687H128V0h7.5Zm0,0" transform="translate(-120.5)" fill="#62808c"/>
  <path id="Path_4651" data-name="Path 4651" d="M47.937,150.5H34.813A2.813,2.813,0,0,1,32,147.688V128H50.75v19.688A2.813,2.813,0,0,1,47.937,150.5Zm0,0" transform="translate(-30.125 -120.5)" fill="#e76e54"/>
  <path id="Path_4652" data-name="Path 4652" d="M22.5,69.625H0v-3.75A1.875,1.875,0,0,1,1.875,64h18.75A1.875,1.875,0,0,1,22.5,65.875Zm0,0" transform="translate(0 -60.25)" fill="#77959e"/>
  <path id="Path_4653" data-name="Path 4653" d="M135.09,255.59a.938.938,0,0,0-1.326,0l-2.424,2.424-2.424-2.424a.937.937,0,0,0-1.326,1.326l2.424,2.424-2.424,2.424a.937.937,0,0,0,1.326,1.326l2.424-2.424,2.424,2.424a.937.937,0,0,0,1.326-1.326l-2.424-2.424,2.424-2.424A.938.938,0,0,0,135.09,255.59Zm0,0" transform="translate(-119.856 -240.356)" fill="#fff"/>
</svg>
